<svg xmlns="http://www.w3.org/2000/svg" fill="none" viewBox="0 0 24 24" height="24" width="24"><desc>Jwt Icon Streamline Icon: https://streamlinehq.com</desc><path fill="#fff" d="M13.774 6.572 13.751.25h-3.525l.023 6.322 1.763 2.42zM10.25 17.405v6.345h3.524v-6.345l-1.762-2.42z"/><path fill="#00f2e6" d="m13.774 17.405 3.713 5.123 2.844-2.068-3.713-5.123-2.844-.916zM10.25 6.571 6.512 1.448 3.669 3.516 7.382 8.64l2.867.917z"/><path fill="#00b9f1" d="M7.382 8.64 1.366 6.688l-1.08 3.337L6.3 12l2.844-.94zm7.473 4.277 1.763 2.42 6.016 1.95 1.08-3.336L17.7 12z"/><path fill="#d63aff" d="m17.699 12 6.016-1.974-1.081-3.337-6.016 1.95-1.763 2.421zM6.301 12 .285 13.95l1.081 3.338 6.016-1.951 1.763-2.42z"/><path fill="#fb015b" d="M7.382 15.337 3.67 20.46l2.844 2.068 3.736-5.123V14.42zm9.236-6.697 3.713-5.124-2.844-2.068-3.713 5.123v2.985z"/></svg>